<?xml version="1.0" encoding="utf-8"?>
<!-- Generator: Adobe Illustrator 27.6.1, SVG Export Plug-In . SVG Version: 6.00 Build 0)  -->
<svg version="1.1" id="Layer_1" xmlns="http://www.w3.org/2000/svg" xmlns:xlink="http://www.w3.org/1999/xlink" x="0px" y="0px"
	 viewBox="0 0 500 250" style="enable-background:new 0 0 500 250;" xml:space="preserve">
<style type="text/css">
	.st0{fill:#362C37;}
	.st1{fill:#362C37;stroke:#362C37;stroke-width:0.5;stroke-miterlimit:10;}
	.st2{font-family:'DelmonDelicate';}
	.st3{font-size:12.2786px;}
</style>
<g>
	<path class="st0" d="M188.88,90.46h-23v52.17h22.19c0,0,24.52-0.33,24.52-25.59C212.6,91.77,188.88,90.46,188.88,90.46z
		 M185.63,140.07h-10.85V93.02H185c0,0,18.69,1.06,18.69,23.84S185.63,140.07,185.63,140.07z"/>
	<path class="st0" d="M259.64,91.69c-8.37-4.55-18.58-4.37-26.94,0.19c-6.94,3.79-13.99,10.95-13.99,24.39
		c0,13.45,7.06,20.47,14,24.11c8.4,4.41,18.53,4.6,26.94,0.2c6.82-3.57,13.63-10.57,13.63-24.31S266.46,95.39,259.64,91.69z
		 M250.36,140.35c-2.85,1.12-5.97,1.24-8.87,0.25c-5.36-1.83-13.6-8.09-13.6-24.05c0-15.07,8.69-21.25,14.03-23.63
		c2.62-1.16,5.59-1.31,8.28-0.33c5.4,1.97,14.08,7.61,14.08,23.5C264.28,130.99,255.77,138.22,250.36,140.35z"/>
	<polygon class="st0" points="306.84,123.65 288.16,90.46 280.63,90.46 280.59,143.9 282.92,143.9 282.97,99.3 303.16,134.95 
		325.31,95.38 325.91,95.38 325.91,143.9 334.29,143.9 334.29,90.46 325.55,90.46 	"/>
	<path class="st0" d="M383.87,90.42c-0.64,0-1.16,0.53-1.17,1.18c0,0-0.22,35.02-0.22,35.09c0,3.67-4.43,14.44-16.51,14.44
		c-13.58,0-13.67-13.22-13.67-13.22l-0.33-37.48h-8.99v37.18c0,11.16,8.64,16.68,23.29,16.84c14.67,0.16,18.76-14.84,18.76-17.58
		V91.61C385.04,90.95,384.51,90.42,383.87,90.42z"/>
	<path class="st0" d="M409.62,111.33c-0.03-0.02-0.06-0.03-0.1-0.05c-0.47-0.32-4.32-3.04-6.68-6.63c-2.36-3.6-1.23-8.62,2.48-10.69
		c3.86-2.16,10.74-3.2,22.63,3.82c0.21,0.12,0.48,0.1,0.66-0.08c0.26-0.26,0.63-0.65,0.92-0.95c0.23-0.24,0.22-0.62-0.04-0.83
		c-1.75-1.43-8.32-6.3-16.93-6.65c-10.11-0.4-15.73,3.84-15.73,3.84s-5.08,4.67-5.08,8.49c0,3.08-0.9,7.2,5.45,12.12
		c6.65,5.16,22.84,12.29,22.84,20.05c0,7.13-4.55,7.95-14.24,7.95c-1.62,0-6.66-1.24-9.59-2.99l-2.93-1.75
		c-0.14-0.08-0.31-0.05-0.41,0.07l-0.91,1.13c-0.12,0.14-0.1,0.35,0.05,0.47c0.89,0.71,2.61,2.38,6.76,4.43
		c2.69,1.33,24.49,6.97,30.6-7.16C435.41,121.95,413.94,114.69,409.62,111.33z"/>
	<path class="st0" d="M79.44,70.34v22.61c1.07-0.1,1.69-0.11,1.69-0.11h11.25V74.06h14.85c0,0,27.16,1.53,27.16,34.64
		c0,23.62-13.35,30.69-21,32.81v4.52c7.06-0.64,33.94-5.19,33.94-37.08c0-36.71-34.46-38.62-34.46-38.62"/>
	<path class="st0" d="M92.38,96.57h-7.7c0,0-2.16,0.05-5.24,0.91v48.68h21v-3.72h-8.07V96.57z"/>
	<path class="st0" d="M100.44,96.57v45.86h7.7c0,0,2.16-0.05,5.24-0.91V92.84h-21v3.72H100.44z"/>
	<path class="st0" d="M100.44,146.15v18.78H85.59c0,0-27.16-1.53-27.16-34.64c0-23.62,13.35-30.69,21-32.81v-4.52
		c-7.06,0.64-33.94,5.19-33.94,37.08c0,36.72,34.46,38.62,34.46,38.62h33.42v-22.61c-1.07,0.1-1.69,0.11-1.69,0.11H100.44z"/>
	<g>
		<text transform="matrix(1 0 0 1 213.6436 173.541)" class="st1 st2 st3">ARQUITECTURA &amp; CONSTRUCCION</text>
	</g>
</g>
</svg>
