<?xml version="1.0" encoding="utf-8"?>
<!-- Generator: Adobe Illustrator 27.6.1, SVG Export Plug-In . SVG Version: 6.00 Build 0)  -->
<svg version="1.1" xmlns="http://www.w3.org/2000/svg" xmlns:xlink="http://www.w3.org/1999/xlink" x="0px" y="0px"
	 viewBox="0 0 1920 637" style="enable-background:new 0 0 1920 637;" xml:space="preserve">
<g id="este_si">
</g>
<g id="mgmg">
	<g>
		<path d="M64.5,228"/>
		<polygon points="222.55,227 264,227 331.2,412 285.2,395 271,355 236,355 260.2,326 244.2,284 209.56,380.05 169,380 214.2,259 
			188,259 		"/>
		<polygon points="633.55,227 675,227 742.2,412 696.2,395 682,355 647,355 671.2,326 655.2,284 620.56,380.05 580,380 625.2,259 
			599,259 		"/>
		<polygon points="1277.55,228 1319,228 1386.2,413 1340.2,396 1326,356 1291,356 1315.2,327 1299.2,285 1264.56,381.05 1224,381 
			1269.2,260 1243,260 		"/>
		<polygon points="1773.55,227 1815,227 1882.2,412 1836.2,395 1822,355 1787,355 1811.2,326 1795.2,284 1760.56,380.05 1720,380 
			1765.2,259 1739,259 		"/>
		<path d="M360.02,219.45"/>
		<path d="M360.94,219.45"/>
		<path d="M322.54,259"/>
		<path d="M322.54,259.09"/>
		<line x1="322.54" y1="260.12" x2="322.54" y2="259.9"/>
		<path d="M322.54,260.12L323,337c0,0,2.12,47,63,47s64-47,64-47V228h-30.2L384,259.45h28V326c0,0,0,24-25,24c-28.27,0-26-27-26-27
			l-0.06-95.67h-32.78l-35.86,32.05h28.73h1.51V260.12z"/>
		<path d="M321,259"/>
		<path d="M545,412c0-1,0-152.54,0-152.54h43V227H465v32.46h42.02V397.7L545,412z"/>
		<path d="M545,259.46"/>
		<g>
			<polyline points="1574,227 1535.78,227 1536.02,397.7 1574,411 1574,227 			"/>
			<path d="M1577.66,202.5c-2.96,8.14-12.96,14-23.32,13.5c-8.43-0.41-16.99-5.22-20.86-13.5c-3.5-7.48-2.42-16.21,1.23-22.09
				c4.63-7.46,11.39-6.69,13.5-13.5c2.17-7.01-3.17-13.44-1.23-14.73c1.69-1.12,6.73,3.07,10.1,6.83
				c7.42,8.29,8.68,16.78,10.77,16.49c2.31-0.33-0.81-11.04,1.16-11.5c1.61-0.38,6.41,8.13,8.66,16.41
				C1580.23,189.89,1580.32,195.19,1577.66,202.5z"/>
		</g>
		<path d="M1395.02,229.16"/>
		<path d="M1518.27,410"/>
		<path d="M1395.02,227"/>
		<path d="M1394.55,381"/>
		<polygon points="1429,381 1428,306 1477.48,394.16 1515.27,410 1517.81,411 1517.81,227 1515,227 1479,227 1479.5,325.5 
			1428.31,227 1392.02,227 1360,259 1389,259 1389,381 		"/>
		<path d="M840.54,315.47c0,0,24.01-7.62,24.01-40c0-14.71-7.33-27.19-9.4-30.08c-3.49-4.85-7.26-8.2-10.07-10.35
			c-2.99-1.95-7.38-4.36-13.07-6.03c-5.15-1.52-9.69-1.95-13.07-2.01c-7.37,0-14.75,0-22.12,0c-14.56,0-28.98,0-43.46,0l-33.49,32
			H745v121h37v-58h18.84l27.14,73.9l51.3,18.1L840.54,315.47z M810.45,259.11L810,259C810,259,810.16,259.03,810.45,259.11z
			 M809.58,292H783v-33l27.32,0.11c2.4,0.63,13.58,4.16,13.48,15.81C823.66,292.73,809.58,292,809.58,292z"/>
		<path d="M879.02,292.17h39.17c3.11-16.05,16.94-27.77,32.81-28.17c16.85-0.42,31.91,12.04,34.73,29.21h40.97
			c0,0-2.97-34.18-30.21-53.8c-19.41-13.97-39.94-13.61-46.05-13.42c-6.12,0.19-25.4,1.07-43.43,15.01
			C883.14,259.44,879.61,286.73,879.02,292.17z"/>
		<path d="M880.02,313.99h39.17c3.11,16.05,16.94,27.77,32.81,28.17c16.85,0.42,31.91-12.04,34.73-29.21h40.97
			c0,0-2.97,34.18-30.21,53.8c-19.41,13.97-39.94,13.61-46.05,13.42c-6.12-0.19-25.4-1.07-43.43-15.01
			C884.14,346.71,880.61,319.43,880.02,313.99z"/>
		<path d="M1119.07,316.04c3.11,16.05,16.94,27.77,32.81,28.17c16.85,0.42,31.91-12.04,34.73-29.21h40.97c0,0-2.97,34.18-30.21,53.8
			c-19.41,13.97-39.94,13.61-46.05,13.42c-6.12-0.19-25.4-1.07-43.43-15.01c-23.86-18.44-27.39-45.73-27.98-51.17
			c-0.3-4.35-0.6-8.7-0.9-13.04c0.33-3.67,0.67-7.33,1-11c0.67-5.57,4.47-32.11,27.88-50.21c18.04-13.94,37.3-14.82,43.43-15.01
			c6.11-0.19,26.64-0.55,46.05,13.42c27.24,19.61,30.21,53.8,30.21,53.8h-40.97c-2.81-17.18-17.87-29.64-34.73-29.21
			c-15.87,0.4-29.69,12.12-32.81,28.17c-0.55,2.87-0.98,6.25-1.07,10.04C1117.88,308.08,1118.4,312.5,1119.07,316.04z"/>
		<path d="M1133.07,313.99"/>
		<path d="M1128.6,292.17"/>
		<path d="M1082.56,294.08"/>
		<path d="M1091.21,289.57"/>
		<polygon points="34,257 65.56,226.62 98.95,226.62 98.95,344.09 167.26,344.09 154.57,380.05 61.61,380.05 61.61,257 		"/>
		<polygon points="1591,228 1593,256 1620,274 1620,257.96 1661.88,257.77 1597.17,347.56 1597.17,380 1700,380 1718,327 1688,337 
			1683,347 1647,347.04 1707,256.68 1707,228 		"/>
	</g>
</g>
</svg>
